<svg width="90" height="87" viewBox="0 0 90 87" fill="none" xmlns="http://www.w3.org/2000/svg">
<g filter="url(#filter0_d_522_33943)">
<path d="M85.4935 41.2C85.4935 63.9541 66.3551 82.4 42.7467 82.4C19.1384 82.4 0 63.9541 0 41.2C0 18.4459 19.1384 0 42.7467 0C66.3551 0 85.4935 18.4459 85.4935 41.2Z" fill="white"/>
<path fill-rule="evenodd" clip-rule="evenodd" d="M42.7467 77.5334C63.5665 77.5334 80.4442 61.2664 80.4442 41.2C80.4442 21.1336 63.5665 4.86661 42.7467 4.86661C21.927 4.86661 5.04931 21.1336 5.04931 41.2C5.04931 61.2664 21.927 77.5334 42.7467 77.5334ZM42.7467 82.4C66.3551 82.4 85.4935 63.9541 85.4935 41.2C85.4935 18.4459 66.3551 0 42.7467 0C19.1384 0 0 18.4459 0 41.2C0 63.9541 19.1384 82.4 42.7467 82.4Z" fill="#131313"/>
</g>
<path d="M34.3479 18.9805L32.6672 26.5799H26.1172L17.2932 66.6732H9.0625L17.8864 26.5799H11.3365L13.0172 18.9805H34.3479Z" fill="#131313"/>
<path d="M58.3727 54.0711L70.5088 18.9805H78.8136L72.7086 36.0851L60.968 66.6732H50.2903L52.8856 40.8496L44.1358 66.6732H33.4581L35.1883 36.0374L36.5971 18.9805H44.8773L41.5405 54.0711L53.6765 18.9805H61.7095L58.3727 54.0711Z" fill="#131313"/>
<defs>
<filter id="filter0_d_522_33943" x="0" y="0" width="89.9867" height="86.8949" filterUnits="userSpaceOnUse" color-interpolation-filters="sRGB">
<feFlood flood-opacity="0" result="BackgroundImageFix"/>
<feColorMatrix in="SourceAlpha" type="matrix" values="0 0 0 0 0 0 0 0 0 0 0 0 0 0 0 0 0 0 127 0" result="hardAlpha"/>
<feOffset dx="4.49455" dy="4.49455"/>
<feComposite in2="hardAlpha" operator="out"/>
<feColorMatrix type="matrix" values="0 0 0 0 0.878431 0 0 0 0 1 0 0 0 0 0 0 0 0 1 0"/>
<feBlend mode="normal" in2="BackgroundImageFix" result="effect1_dropShadow_522_33943"/>
<feBlend mode="normal" in="SourceGraphic" in2="effect1_dropShadow_522_33943" result="shape"/>
</filter>
</defs>
</svg>
